<svg id="Ebene_1" data-name="Ebene 1" xmlns="http://www.w3.org/2000/svg" viewBox="0 0 70.87 70.87"><defs><style>.cls-1{fill:none;}.cls-1,.cls-2{stroke:#000;stroke-linecap:round;stroke-linejoin:round;stroke-width:0.5px;}.cls-2{fill:#fff;}</style></defs><title>Icons</title><rect class="cls-1" x="11.79" y="7.54" width="48.13" height="44.44"/><rect class="cls-1" x="9.38" y="5.31" width="52.94" height="48.89"/><polygon class="cls-2" points="24.91 66.69 9.38 54.2 9.38 5.97 24.91 18.46 24.91 66.69"/><line class="cls-1" x1="21.22" y1="37.97" x2="21.22" y2="43.84"/><polygon class="cls-2" points="9.38 5.97 11.52 5.31 27.05 17.8 24.91 18.46 9.38 5.97"/><polygon class="cls-2" points="24.91 66.72 27.05 66.04 27.05 17.8 24.91 18.46 24.91 66.72"/><polygon class="cls-2" points="46.8 66.69 62.33 54.2 62.33 5.97 46.8 18.46 46.8 66.69"/><line class="cls-1" x1="50.49" y1="37.97" x2="50.49" y2="43.84"/><polygon class="cls-2" points="62.33 5.97 60.19 5.31 44.66 17.8 46.8 18.46 62.33 5.97"/><polygon class="cls-2" points="46.8 66.72 44.66 66.04 44.66 17.8 46.8 18.46 46.8 66.72"/></svg>