<svg id="Ebene_1" data-name="Ebene 1" xmlns="http://www.w3.org/2000/svg" viewBox="0 0 70.87 70.87"><defs><style>.cls-1{fill:#fff;}.cls-1,.cls-2{stroke:#000;stroke-linecap:round;stroke-linejoin:round;stroke-width:0.5px;}.cls-2{fill:none;}</style></defs><title>Icons</title><rect class="cls-1" x="24.1" y="11.55" width="22.16" height="49.51" transform="translate(71.49 1.12) rotate(90)"/><rect class="cls-2" x="20.92" y="9.37" width="28.53" height="54.46" transform="translate(71.78 1.42) rotate(90)"/><polygon class="cls-1" points="10.68 25.22 5.48 31.69 5.48 50.59 64.88 50.59 64.88 31.69 59.69 25.22 10.68 25.22"/><polygon class="cls-1" points="13 25.42 7.8 31.89 10.07 50.59 60.21 50.59 62.13 31.69 56.94 25.22 13 25.42"/><rect class="cls-2" x="26.23" y="14.09" width="17.92" height="40.17" transform="translate(69.36 -1.01) rotate(90)"/><rect class="cls-1" x="24.05" y="8.55" width="22.77" height="65.22" transform="translate(76.6 5.73) rotate(90)"/><line class="cls-1" x1="31.25" y1="37.44" x2="39.11" y2="37.44"/><polygon class="cls-1" points="68.05 29.78 2.82 29.78 4.35 27.87 66.51 27.87 68.05 29.78"/></svg>