<svg xmlns="http://www.w3.org/2000/svg" viewBox="0 0 550.3 456.39"><defs><style>.cls-1{isolation:isolate;}.cls-2,.cls-8{fill:#dddfe4;opacity:0.52;}.cls-3,.cls-4{fill:#fff;}.cls-3,.cls-9{stroke:#4d4c4c;stroke-linecap:round;stroke-linejoin:round;}.cls-5{fill:#c89624;}.cls-6{fill:#f8f7f7;}.cls-7{fill:#4d4c4c;}.cls-8{mix-blend-mode:multiply;}.cls-9{fill:#e8d45d;}</style></defs><g class="cls-1"><g id="Ebene_1" data-name="Ebene 1"><path class="cls-2" d="M503.65,425.79c0,9.61-41,8.47-201.11,8.47s-252.78-.33-255-9.47,102-10.4,234.77-11.67S503.64,409.35,503.65,425.79Z"/><rect class="cls-3" x="271.97" y="-92.57" width="5.07" height="405.11" transform="translate(164.52 384.49) rotate(-90)"/><rect class="cls-3" x="271.88" y="-165.21" width="5.07" height="405.28" transform="translate(237 311.85) rotate(-90)"/><rect class="cls-3" x="263.96" y="210.57" width="20.93" height="405.28" transform="translate(-138.79 687.63) rotate(-90)"/><rect class="cls-3" x="271.88" y="197.57" width="5.07" height="405.28" transform="translate(-125.79 674.63) rotate(-90)"/><rect class="cls-3" x="66.71" y="34.89" width="5.07" height="388.79"/><rect class="cls-3" x="477.06" y="34.89" width="5.07" height="388.79"/><rect class="cls-3" x="374.47" y="34.89" width="5.07" height="388.79"/><rect class="cls-3" x="271.88" y="34.89" width="5.07" height="388.79"/><rect class="cls-3" x="169.3" y="34.89" width="5.07" height="388.79"/><path class="cls-4" d="M326.43,273.48a18.26,18.26,0,1,1,18.25-18.25A18.28,18.28,0,0,1,326.43,273.48Z"/><path class="cls-5" d="M326.43,238a17.26,17.26,0,1,1-17.26,17.26A17.26,17.26,0,0,1,326.43,238m0-2a19.26,19.26,0,1,0,19.25,19.26A19.28,19.28,0,0,0,326.43,236Z"/><line class="cls-3" x1="318.39" y1="255.23" x2="334.46" y2="255.23"/><line class="cls-3" x1="326.43" y1="247.19" x2="326.43" y2="263.26"/><path class="cls-6" d="M329.67,269.24A17.24,17.24,0,0,1,316,241.52a17.25,17.25,0,1,0,24.18,24.18A17.19,17.19,0,0,1,329.67,269.24Z"/><polygon class="cls-7" points="374.75 345.53 379.82 344.62 379.82 320.02 374.75 320.37 374.75 345.53"/><path class="cls-7" d="M271.76,269.85l5.47-1v-4.52l-5.47,1m108.06-19.53-5.07.92v4.51l5.07-.92"/><polygon class="cls-7" points="329.44 259.68 328.86 272.15 331.63 271.82 329.44 259.68"/><path class="cls-3" d="M309.92,160.27a2.21,2.21,0,0,0-1.79,2.57l10.94,60.54a2.22,2.22,0,1,0,4.37-.79L312.5,162.05A2.22,2.22,0,0,0,309.92,160.27Z"/><path class="cls-3" d="M298.35,258.75a2.22,2.22,0,0,0-2.58-1.78l-60.54,10.94a2.22,2.22,0,0,0,.79,4.37l60.54-10.95A2.21,2.21,0,0,0,298.35,258.75Z"/><path class="cls-3" d="M417.56,235,357,245.89a2.22,2.22,0,0,0,.79,4.37l60.54-10.94a2.22,2.22,0,0,0-.79-4.37Z"/><path class="cls-3" d="M251.94,199a2.22,2.22,0,0,0-2.53,3.65L300,237.7a2.22,2.22,0,0,0,2.53-3.65Z"/><polygon class="cls-3" points="424.59 325.42 329.85 259.68 350.28 372.74 378.05 333.83 424.59 325.42"/><path class="cls-8" d="M349.86,371.91l-13.55-78.27s22.76,36,48.64,38.15l-7.44,1.75Z"/><polyline class="cls-7" points="271.76 223.84 277.23 227.64 277.23 222.23 271.76 218.44"/><path class="cls-7" d="M277,325.71l-4.8,6.92a2.22,2.22,0,1,0,3.64,2.53L277,333.5Z"/><path class="cls-3" d="M307.23,277.92l-35.07,50.54a2.22,2.22,0,0,0,2.22,3.45,2.19,2.19,0,0,0,1.42-.92l35.08-50.54a2.22,2.22,0,1,0-3.65-2.53Z"/><path class="cls-7" d="M374.47,193.44l5.09-7.33v-6.17a2.21,2.21,0,0,0-1.78.94l-3.31,4.77Z"/><path class="cls-3" d="M344.93,230.23a2.23,2.23,0,0,0,1.43-.92l35.07-50.55a2.22,2.22,0,0,0-3.65-2.53l-35.07,50.55a2.22,2.22,0,0,0,2.22,3.45Z"/><rect class="cls-9" x="117.81" y="80.06" width="5.45" height="97.51" transform="translate(-8.27 249.35) rotate(-90)"/><rect class="cls-9" x="71.78" y="363.93" width="97.51" height="33.74"/><rect class="cls-9" x="71.78" y="324.52" width="97.51" height="33.74"/><rect class="cls-9" x="71.95" y="313.18" width="97.51" height="5.67"/><rect class="cls-3" x="174.37" y="313.18" width="97.51" height="5.67"/><rect class="cls-9" x="174.37" y="126.09" width="97.51" height="5.67"/><rect class="cls-9" x="183.78" y="355.49" width="78.69" height="5.67" transform="translate(581.46 135.2) rotate(90)"/></g></g></svg>